<svg xmlns="http://www.w3.org/2000/svg" version="1.1" fill="none" width="256px" height="256px" style="shape-rendering:geometricPrecision; text-rendering:geometricPrecision; image-rendering:optimizeQuality; fill-rule:evenodd; clip-rule:evenodd" xmlns:xlink="http://www.w3.org/1999/xlink">
<path fill="#000000" d="M 122.5,9.5 C 147.655,9.31641 163.488,21.3164 170,45.5C 171.578,55.207 170.078,64.3737 165.5,73C 175.892,73.1003 186.225,73.767 196.5,75C 205.276,78.7758 211.776,84.9425 216,93.5C 225.023,126.258 234.356,158.924 244,191.5C 248.224,211.885 240.724,226.052 221.5,234C 158.833,234.667 96.1667,234.667 33.5,234C 14.9143,226.662 7.41433,213.162 11,193.5C 19.0104,164.14 27.0104,134.807 35,105.5C 37.3433,90.8541 45.1767,80.6874 58.5,75C 68.7749,73.767 79.1082,73.1003 89.5,73C 79.556,50.0493 84.556,31.0493 104.5,16C 110.301,12.9029 116.301,10.7363 122.5,9.5 Z M 121.5,32.5 C 137.217,30.6755 146.217,37.5088 148.5,53C 146.213,67.9531 137.546,74.6198 122.5,73C 109.36,68.2199 104.526,59.0532 108,45.5C 110.442,38.8884 114.942,34.555 121.5,32.5 Z M 65.5,96.5 C 107.561,96.0166 149.561,96.5166 191.5,98C 193.894,99.9522 195.394,102.452 196,105.5C 205.148,137.733 213.981,170.066 222.5,202.5C 221.592,208.241 218.259,211.408 212.5,212C 155.833,212.667 99.1667,212.667 42.5,212C 35.0327,210.574 31.866,206.074 33,198.5C 42.3347,165.822 51.668,133.155 61,100.5C 62.3968,98.9297 63.8968,97.5964 65.5,96.5 Z"/>
<path fill="#000000" d="M 124.5,108.5 C 129.28,107.641 132.78,109.308 135,113.5C 135.5,125.495 135.667,137.495 135.5,149.5C 150.17,149.333 164.837,149.5 179.5,150C 184.524,152.057 185.69,155.557 183,160.5C 181.933,161.191 180.766,161.691 179.5,162C 164.837,162.5 150.17,162.667 135.5,162.5C 135.667,174.505 135.5,186.505 135,198.5C 131.987,203.535 127.82,204.702 122.5,202C 121.299,201.097 120.465,199.931 120,198.5C 119.5,186.505 119.333,174.505 119.5,162.5C 104.83,162.667 90.1629,162.5 75.5,162C 70.4763,159.943 69.3096,156.443 72,151.5C 73.0674,150.809 74.2341,150.309 75.5,150C 90.1629,149.5 104.83,149.333 119.5,149.5C 119.333,137.495 119.5,125.495 120,113.5C 121.025,111.313 122.525,109.646 124.5,108.5 Z"/>
</svg>
