<?xml version="1.0" encoding="UTF-8"?>
<!DOCTYPE svg PUBLIC "-//W3C//DTD SVG 1.1//EN" "http://www.w3.org/Graphics/SVG/1.1/DTD/svg11.dtd">
<svg xmlns="http://www.w3.org/2000/svg" version="1.1" width="256px" height="256px" style="shape-rendering:geometricPrecision; text-rendering:geometricPrecision; image-rendering:optimizeQuality; fill-rule:evenodd; clip-rule:evenodd" xmlns:xlink="http://www.w3.org/1999/xlink">
<g><path style="opacity:0.965" fill="#000000" d="M 58.5,20.5 C 79.8359,20.3334 101.169,20.5 122.5,21C 130.333,23.5 135.5,28.6667 138,36.5C 138.667,97.1667 138.667,157.833 138,218.5C 135.5,226.333 130.333,231.5 122.5,234C 101.167,234.667 79.8333,234.667 58.5,234C 50.8703,232.373 45.7036,227.873 43,220.5C 41.3486,159.878 41.0152,99.2113 42,38.5C 43.9417,29.0646 49.4417,23.0646 58.5,20.5 Z M 63.5,42.5 C 81.1667,42.5 98.8333,42.5 116.5,42.5C 116.5,52.8333 116.5,63.1667 116.5,73.5C 107.418,73.0863 98.4178,73.5863 89.5,75C 83.8842,80.0855 83.0509,85.9189 87,92.5C 87.9025,93.7014 89.0692,94.5348 90.5,95C 99.1603,95.4998 107.827,95.6664 116.5,95.5C 116.5,102.5 116.5,109.5 116.5,116.5C 108.16,116.334 99.8267,116.5 91.5,117C 84.5864,120.77 82.7531,126.27 86,133.5C 87.5429,135.378 89.3762,136.878 91.5,138C 99.8267,138.5 108.16,138.666 116.5,138.5C 116.5,145.5 116.5,152.5 116.5,159.5C 107.827,159.334 99.1603,159.5 90.5,160C 84.5291,164.197 83.0291,169.697 86,176.5C 87.1667,177.667 88.3333,178.833 89.5,180C 98.4178,181.414 107.418,181.914 116.5,181.5C 116.5,191.833 116.5,202.167 116.5,212.5C 98.8333,212.5 81.1667,212.5 63.5,212.5C 63.5,155.833 63.5,99.1667 63.5,42.5 Z"/></g>
<g><path style="opacity:0.967" fill="#000000" d="M 165.5,31.5 C 183.594,31.0269 201.594,31.5269 219.5,33C 223.953,38.0281 224.62,43.5281 221.5,49.5C 219.869,51.2974 217.869,52.4641 215.5,53C 211.179,53.499 206.846,53.6657 202.5,53.5C 202.5,102.833 202.5,152.167 202.5,201.5C 206.846,201.334 211.179,201.501 215.5,202C 223.074,204.534 225.574,209.701 223,217.5C 221.833,220 220,221.833 217.5,223C 200.167,223.667 182.833,223.667 165.5,223C 161.047,220.929 159.047,217.429 159.5,212.5C 159.38,206.916 162.047,203.416 167.5,202C 171.821,201.501 176.154,201.334 180.5,201.5C 180.5,152.167 180.5,102.833 180.5,53.5C 176.154,53.6657 171.821,53.499 167.5,53C 159.926,50.4661 157.426,45.2995 160,37.5C 161.36,34.9774 163.193,32.9774 165.5,31.5 Z"/></g>
</svg>
